<svg width="15" height="18" viewBox="0 0 15 18" fill="none" xmlns="http://www.w3.org/2000/svg">
<g filter="url(#filter0_dddd_303_627)">
<path fill-rule="evenodd" clip-rule="evenodd" d="M10.9023 4.5C12.7812 4.5 14 5.71875 14 7.59766V14.4023C14 16.2812 12.7812 17.5 10.9023 17.5H4.09766C2.21875 17.5 1 16.2812 1 14.4023V7.59766C1 5.71875 2.21875 4.5 4.09766 4.5H10.9023Z" fill="url(#paint0_linear_303_627)"/>
</g>
<mask id="mask0_303_627" style="mask-type:alpha" maskUnits="userSpaceOnUse" x="1" y="4" width="13" height="14">
<path fill-rule="evenodd" clip-rule="evenodd" d="M10.9023 4.5C12.7812 4.5 14 5.71875 14 7.59766V14.4023C14 16.2812 12.7812 17.5 10.9023 17.5H4.09766C2.21875 17.5 1 16.2812 1 14.4023V7.59766C1 5.71875 2.21875 4.5 4.09766 4.5H10.9023Z" fill="white"/>
</mask>
<g mask="url(#mask0_303_627)">
<path d="M14.2438 8.58958H0.756287V13.4104H14.2438V8.58958Z" fill="#959595" stroke="#E2E2E2" stroke-width="0.5"/>
<mask id="mask1_303_627" style="mask-type:alpha" maskUnits="userSpaceOnUse" x="0" y="8" width="15" height="6">
<path d="M14.65 8.69118H0.350037V13.3062H14.65V8.69118Z" fill="white"/>
</mask>
<g mask="url(#mask1_303_627)">
<path d="M14.6717 8.66869H0.328369V10.8787H14.6717V8.66869Z" fill="#C9C9C9" stroke="white" stroke-width="0.4"/>
<path d="M14.6717 11.1201H0.328369V13.3301H14.6717V11.1201Z" fill="#C9C9C9" stroke="white" stroke-width="0.4"/>
</g>
</g>
<g filter="url(#filter1_d_303_627)">
<path fill-rule="evenodd" clip-rule="evenodd" d="M7.5 16.6333C10.6112 16.6333 13.1333 14.1112 13.1333 11C13.1333 7.8888 10.6112 5.36667 7.5 5.36667C4.3888 5.36667 1.86667 7.8888 1.86667 11C1.86667 14.1112 4.3888 16.6333 7.5 16.6333Z" fill="white"/>
</g>
<path fill-rule="evenodd" clip-rule="evenodd" d="M7.5 16.6333C10.6112 16.6333 13.1333 14.1112 13.1333 11C13.1333 7.8888 10.6112 5.36667 7.5 5.36667C4.3888 5.36667 1.86667 7.8888 1.86667 11C1.86667 14.1112 4.3888 16.6333 7.5 16.6333Z" stroke="url(#paint1_linear_303_627)" stroke-width="0.5"/>
<path fill-rule="evenodd" clip-rule="evenodd" d="M7.49999 16.0917C10.312 16.0917 12.5917 13.8121 12.5917 11C12.5917 8.18795 10.312 5.90833 7.49999 5.90833C4.68794 5.90833 2.40833 8.18795 2.40833 11C2.40833 13.8121 4.68794 16.0917 7.49999 16.0917Z" fill="#D9D9D9"/>
<path fill-rule="evenodd" clip-rule="evenodd" d="M7.5 16.0917C10.1326 16.0917 12.2667 13.9576 12.2667 11.325C12.2667 8.69245 10.1326 6.55833 7.5 6.55833C4.86745 6.55833 2.73334 8.69245 2.73334 11.325C2.73334 13.9576 4.86745 16.0917 7.5 16.0917Z" fill="white"/>
<path d="M7.52704 15.5392C10.019 15.5392 12.0391 13.519 12.0391 11.0271C12.0391 8.53512 10.019 6.515 7.52704 6.515C5.03508 6.515 3.01495 8.53512 3.01495 11.0271C3.01495 13.519 5.03508 15.5392 7.52704 15.5392Z" fill="#0489FF" stroke="url(#paint2_linear_303_627)" stroke-width="0.8"/>
<path fill-rule="evenodd" clip-rule="evenodd" d="M7.49839 14.8967C9.59157 14.8967 11.2884 13.1999 11.2884 11.1067C11.2884 9.01352 9.59157 7.31667 7.49839 7.31667C5.4052 7.31667 3.70834 9.01352 3.70834 11.1067C3.70834 13.1999 5.4052 14.8967 7.49839 14.8967ZM7.49839 14.6831C9.53256 14.6831 11.1816 13.034 11.1816 10.9999C11.1816 8.96568 9.53256 7.31667 7.49839 7.31667C5.46422 7.31667 3.81519 8.96568 3.81519 10.9999C3.81519 13.034 5.46422 14.6831 7.49839 14.6831Z" fill="#4EA7FF"/>
<g filter="url(#filter2_d_303_627)">
<path fill-rule="evenodd" clip-rule="evenodd" d="M7.49999 14.4667C9.41458 14.4667 10.9667 12.9146 10.9667 11C10.9667 9.08541 9.41458 7.53333 7.49999 7.53333C5.58541 7.53333 4.03333 9.08541 4.03333 11C4.03333 12.9146 5.58541 14.4667 7.49999 14.4667Z" fill="#F2F2F2"/>
</g>
<path d="M7.49999 14.5208C9.4445 14.5208 11.0208 12.9445 11.0208 11C11.0208 9.05549 9.4445 7.47917 7.49999 7.47917C5.55548 7.47917 3.97916 9.05549 3.97916 11C3.97916 12.9445 5.55548 14.5208 7.49999 14.5208Z" stroke="#0667C2"/>
<path fill-rule="evenodd" clip-rule="evenodd" d="M7.48869 12.9049C8.49086 12.9049 9.30327 12.1072 9.30327 11.1231C9.30327 10.139 8.49086 9.3413 7.48869 9.3413C6.48652 9.3413 5.6741 10.139 5.6741 11.1231C5.6741 12.1072 6.48652 12.9049 7.48869 12.9049Z" fill="white"/>
<g filter="url(#filter3_ddd_303_627)">
<path fill-rule="evenodd" clip-rule="evenodd" d="M7.49553 12.7244C8.45036 12.7244 9.2244 11.9504 9.2244 10.9955C9.2244 10.0407 8.45036 9.26667 7.49553 9.26667C6.5407 9.26667 5.76666 10.0407 5.76666 10.9955C5.76666 11.9504 6.5407 12.7244 7.49553 12.7244Z" fill="#D9D9D9"/>
</g>
<g filter="url(#filter4_d_303_627)">
<path d="M8.25834 8.61667H6.74167V13.3833H8.25834V8.61667Z" fill="#333333"/>
</g>
<path fill-rule="evenodd" clip-rule="evenodd" d="M6.95834 9.05H8.04168V13.3833H6.95834V9.05ZM7.67209 11.7126L8.04028 11.3444V11.5958V12.3444L7.67942 12.0197C7.58814 11.9375 7.58476 11.8 7.67209 11.7126ZM7.34226 10.4126C7.42958 10.5 7.4262 10.6375 7.33492 10.7197L6.95871 11.0583V10.0291L7.34226 10.4126Z" fill="#666666"/>
<g filter="url(#filter5_d_303_627)">
<path fill-rule="evenodd" clip-rule="evenodd" d="M7.175 10.35L6.74167 10.7833V9.91667L7.175 10.35Z" fill="#D9D9D9"/>
</g>
<g filter="url(#filter6_d_303_627)">
<path fill-rule="evenodd" clip-rule="evenodd" d="M7.82501 11.65L8.25835 11.2167V12.0833L7.82501 11.65Z" fill="#D9D9D9"/>
</g>
<defs>
<filter id="filter0_dddd_303_627" x="0.6" y="4.1" width="13.8" height="13.8" filterUnits="userSpaceOnUse" color-interpolation-filters="sRGB">
<feFlood flood-opacity="0" result="BackgroundImageFix"/>
<feColorMatrix in="SourceAlpha" type="matrix" values="0 0 0 0 0 0 0 0 0 0 0 0 0 0 0 0 0 0 127 0" result="hardAlpha"/>
<feOffset dy="0.4"/>
<feComposite in2="hardAlpha" operator="out"/>
<feColorMatrix type="matrix" values="0 0 0 0 0.592157 0 0 0 0 0.592157 0 0 0 0 0.592157 0 0 0 1 0"/>
<feBlend mode="normal" in2="BackgroundImageFix" result="effect1_dropShadow_303_627"/>
<feColorMatrix in="SourceAlpha" type="matrix" values="0 0 0 0 0 0 0 0 0 0 0 0 0 0 0 0 0 0 127 0" result="hardAlpha"/>
<feOffset dy="-0.4"/>
<feComposite in2="hardAlpha" operator="out"/>
<feColorMatrix type="matrix" values="0 0 0 0 0.580392 0 0 0 0 0.580392 0 0 0 0 0.580392 0 0 0 1 0"/>
<feBlend mode="normal" in2="effect1_dropShadow_303_627" result="effect2_dropShadow_303_627"/>
<feColorMatrix in="SourceAlpha" type="matrix" values="0 0 0 0 0 0 0 0 0 0 0 0 0 0 0 0 0 0 127 0" result="hardAlpha"/>
<feOffset dx="0.4"/>
<feComposite in2="hardAlpha" operator="out"/>
<feColorMatrix type="matrix" values="0 0 0 0 0.584314 0 0 0 0 0.584314 0 0 0 0 0.584314 0 0 0 1 0"/>
<feBlend mode="normal" in2="effect2_dropShadow_303_627" result="effect3_dropShadow_303_627"/>
<feColorMatrix in="SourceAlpha" type="matrix" values="0 0 0 0 0 0 0 0 0 0 0 0 0 0 0 0 0 0 127 0" result="hardAlpha"/>
<feOffset dx="-0.4"/>
<feComposite in2="hardAlpha" operator="out"/>
<feColorMatrix type="matrix" values="0 0 0 0 0.588235 0 0 0 0 0.588235 0 0 0 0 0.588235 0 0 0 1 0"/>
<feBlend mode="normal" in2="effect3_dropShadow_303_627" result="effect4_dropShadow_303_627"/>
<feBlend mode="normal" in="SourceGraphic" in2="effect4_dropShadow_303_627" result="shape"/>
</filter>
<filter id="filter1_d_303_627" x="1.86667" y="0.366667" width="11.2667" height="16.2667" filterUnits="userSpaceOnUse" color-interpolation-filters="sRGB">
<feFlood flood-opacity="0" result="BackgroundImageFix"/>
<feColorMatrix in="SourceAlpha" type="matrix" values="0 0 0 0 0 0 0 0 0 0 0 0 0 0 0 0 0 0 127 0" result="hardAlpha"/>
<feOffset dy="-5"/>
<feComposite in2="hardAlpha" operator="out"/>
<feColorMatrix type="matrix" values="0 0 0 0 0.85098 0 0 0 0 0.85098 0 0 0 0 0.85098 0 0 0 1 0"/>
<feBlend mode="normal" in2="BackgroundImageFix" result="effect1_dropShadow_303_627"/>
<feBlend mode="normal" in="SourceGraphic" in2="effect1_dropShadow_303_627" result="shape"/>
</filter>
<filter id="filter2_d_303_627" x="4.03333" y="7.53333" width="6.93332" height="8.43333" filterUnits="userSpaceOnUse" color-interpolation-filters="sRGB">
<feFlood flood-opacity="0" result="BackgroundImageFix"/>
<feColorMatrix in="SourceAlpha" type="matrix" values="0 0 0 0 0 0 0 0 0 0 0 0 0 0 0 0 0 0 127 0" result="hardAlpha"/>
<feOffset dy="1.5"/>
<feComposite in2="hardAlpha" operator="out"/>
<feColorMatrix type="matrix" values="0 0 0 0 0.807843 0 0 0 0 0.807843 0 0 0 0 0.807843 0 0 0 1 0"/>
<feBlend mode="normal" in2="BackgroundImageFix" result="effect1_dropShadow_303_627"/>
<feBlend mode="normal" in="SourceGraphic" in2="effect1_dropShadow_303_627" result="shape"/>
</filter>
<filter id="filter3_ddd_303_627" x="5.76666" y="8.26667" width="3.45773" height="6.45774" filterUnits="userSpaceOnUse" color-interpolation-filters="sRGB">
<feFlood flood-opacity="0" result="BackgroundImageFix"/>
<feColorMatrix in="SourceAlpha" type="matrix" values="0 0 0 0 0 0 0 0 0 0 0 0 0 0 0 0 0 0 127 0" result="hardAlpha"/>
<feOffset dy="2"/>
<feComposite in2="hardAlpha" operator="out"/>
<feColorMatrix type="matrix" values="0 0 0 0 0.764706 0 0 0 0 0.764706 0 0 0 0 0.764706 0 0 0 1 0"/>
<feBlend mode="normal" in2="BackgroundImageFix" result="effect1_dropShadow_303_627"/>
<feColorMatrix in="SourceAlpha" type="matrix" values="0 0 0 0 0 0 0 0 0 0 0 0 0 0 0 0 0 0 127 0" result="hardAlpha"/>
<feOffset dy="1"/>
<feComposite in2="hardAlpha" operator="out"/>
<feColorMatrix type="matrix" values="0 0 0 0 0.72549 0 0 0 0 0.72549 0 0 0 0 0.72549 0 0 0 1 0"/>
<feBlend mode="normal" in2="effect1_dropShadow_303_627" result="effect2_dropShadow_303_627"/>
<feColorMatrix in="SourceAlpha" type="matrix" values="0 0 0 0 0 0 0 0 0 0 0 0 0 0 0 0 0 0 127 0" result="hardAlpha"/>
<feOffset dy="-1"/>
<feComposite in2="hardAlpha" operator="out"/>
<feColorMatrix type="matrix" values="0 0 0 0 0.807843 0 0 0 0 0.807843 0 0 0 0 0.807843 0 0 0 1 0"/>
<feBlend mode="normal" in2="effect2_dropShadow_303_627" result="effect3_dropShadow_303_627"/>
<feBlend mode="normal" in="SourceGraphic" in2="effect3_dropShadow_303_627" result="shape"/>
</filter>
<filter id="filter4_d_303_627" x="6.74167" y="8.61667" width="1.51666" height="5.76667" filterUnits="userSpaceOnUse" color-interpolation-filters="sRGB">
<feFlood flood-opacity="0" result="BackgroundImageFix"/>
<feColorMatrix in="SourceAlpha" type="matrix" values="0 0 0 0 0 0 0 0 0 0 0 0 0 0 0 0 0 0 127 0" result="hardAlpha"/>
<feOffset dy="1"/>
<feColorMatrix type="matrix" values="0 0 0 0 1 0 0 0 0 1 0 0 0 0 1 0 0 0 1 0"/>
<feBlend mode="normal" in2="BackgroundImageFix" result="effect1_dropShadow_303_627"/>
<feBlend mode="normal" in="SourceGraphic" in2="effect1_dropShadow_303_627" result="shape"/>
</filter>
<filter id="filter5_d_303_627" x="6.74167" y="9.91667" width="0.433319" height="2.36667" filterUnits="userSpaceOnUse" color-interpolation-filters="sRGB">
<feFlood flood-opacity="0" result="BackgroundImageFix"/>
<feColorMatrix in="SourceAlpha" type="matrix" values="0 0 0 0 0 0 0 0 0 0 0 0 0 0 0 0 0 0 127 0" result="hardAlpha"/>
<feOffset dy="1.5"/>
<feComposite in2="hardAlpha" operator="out"/>
<feColorMatrix type="matrix" values="0 0 0 0 1 0 0 0 0 1 0 0 0 0 1 0 0 0 1 0"/>
<feBlend mode="normal" in2="BackgroundImageFix" result="effect1_dropShadow_303_627"/>
<feBlend mode="normal" in="SourceGraphic" in2="effect1_dropShadow_303_627" result="shape"/>
</filter>
<filter id="filter6_d_303_627" x="7.82501" y="11.2167" width="0.433319" height="2.36667" filterUnits="userSpaceOnUse" color-interpolation-filters="sRGB">
<feFlood flood-opacity="0" result="BackgroundImageFix"/>
<feColorMatrix in="SourceAlpha" type="matrix" values="0 0 0 0 0 0 0 0 0 0 0 0 0 0 0 0 0 0 127 0" result="hardAlpha"/>
<feOffset dy="1.5"/>
<feComposite in2="hardAlpha" operator="out"/>
<feColorMatrix type="matrix" values="0 0 0 0 1 0 0 0 0 1 0 0 0 0 1 0 0 0 1 0"/>
<feBlend mode="normal" in2="BackgroundImageFix" result="effect1_dropShadow_303_627"/>
<feBlend mode="normal" in="SourceGraphic" in2="effect1_dropShadow_303_627" result="shape"/>
</filter>
<linearGradient id="paint0_linear_303_627" x1="1" y1="4.5" x2="1" y2="17.5" gradientUnits="userSpaceOnUse">
<stop stop-color="#D2D2D2"/>
<stop offset="1" stop-color="#9F9F9F"/>
</linearGradient>
<linearGradient id="paint1_linear_303_627" x1="1.86667" y1="5.36667" x2="1.86667" y2="16.6333" gradientUnits="userSpaceOnUse">
<stop stop-color="#808080" stop-opacity="0.7"/>
<stop offset="1" stop-color="#4B4B4B" stop-opacity="0.7"/>
</linearGradient>
<linearGradient id="paint2_linear_303_627" x1="3.05829" y1="6.55833" x2="3.05829" y2="15.4958" gradientUnits="userSpaceOnUse">
<stop stop-color="#053360"/>
<stop offset="1" stop-color="#0667C2"/>
</linearGradient>
</defs>
</svg>
