<svg width="16" height="16" viewBox="0 0 16 16" fill="none" xmlns="http://www.w3.org/2000/svg">
<path d="M2.66669 4C2.66669 3.4477 3.1144 3 3.66669 3H12.3334C12.8857 3 13.3334 3.4477 13.3334 4V7.66667H2.66669V4Z" stroke="#1A1919" stroke-linecap="round" stroke-linejoin="round"/>
<path d="M2 11.6667V13" stroke="#1A1919" stroke-linecap="round" stroke-linejoin="round"/>
<path d="M14 11.6667V13" stroke="#1A1919" stroke-linecap="round" stroke-linejoin="round"/>
<path d="M6.66669 6H4.66669C4.11439 6 3.66669 6.4477 3.66669 7V7.66667H7.66669V7C7.66669 6.4477 7.21899 6 6.66669 6Z" stroke="#1A1919" stroke-linecap="round" stroke-linejoin="round"/>
<path d="M11.3333 6H9.33331C8.78101 6 8.33331 6.4477 8.33331 7V7.66667H12.3333V7C12.3333 6.4477 11.8856 6 11.3333 6Z" stroke="#1A1919" stroke-linecap="round" stroke-linejoin="round"/>
<path d="M1.33331 8.66666C1.33331 8.11436 1.78103 7.66666 2.33331 7.66666H13.6666C14.2189 7.66666 14.6666 8.11436 14.6666 8.66666V11.6667H1.33331V8.66666Z" stroke="#1A1919" stroke-linecap="round" stroke-linejoin="round"/>
</svg>
